%TF.GenerationSoftware,KiCad,Pcbnew,9.0.5*%
%TF.CreationDate,2025-11-09T17:22:02-07:00*%
%TF.ProjectId,Activity-Tracker,41637469-7669-4747-992d-547261636b65,V3*%
%TF.SameCoordinates,Original*%
%TF.FileFunction,Plated,1,2,PTH,Drill*%
%TF.FilePolarity,Positive*%
%FSLAX46Y46*%
G04 Gerber Fmt 4.6, Leading zero omitted, Abs format (unit mm)*
G04 Created by KiCad (PCBNEW 9.0.5) date 2025-11-09 17:22:02*
%MOMM*%
%LPD*%
G01*
G04 APERTURE LIST*
%TA.AperFunction,ViaDrill*%
%ADD10C,0.300000*%
%TD*%
%TA.AperFunction,ComponentDrill*%
%ADD11C,1.000000*%
%TD*%
%TA.AperFunction,ComponentDrill*%
%ADD12C,1.016000*%
%TD*%
%TA.AperFunction,ComponentDrill*%
%ADD13C,1.200000*%
%TD*%
%TA.AperFunction,ComponentDrill*%
%ADD14C,2.500000*%
%TD*%
G04 APERTURE END LIST*
D10*
X88500000Y-66000000D03*
X90500000Y-72000000D03*
X94000000Y-77000000D03*
X96500000Y-72301000D03*
X117000000Y-68000000D03*
X117396800Y-65000000D03*
X122000000Y-101500000D03*
X122000000Y-104500000D03*
X130000000Y-68500000D03*
X130000000Y-70500000D03*
X137500000Y-67000000D03*
X137500000Y-97500000D03*
X139000000Y-101000000D03*
X140000000Y-71000000D03*
X142000000Y-101000000D03*
X143500000Y-97500000D03*
X144950000Y-100950000D03*
X146000000Y-69000000D03*
X148000000Y-94000000D03*
X149000000Y-107500000D03*
X158500000Y-79000000D03*
X158500000Y-93000000D03*
X158500000Y-107000000D03*
D11*
%TO.C,J2*%
X96000000Y-106460000D03*
X96000000Y-109000000D03*
%TO.C,J3*%
X111000000Y-79380000D03*
X111000000Y-81920000D03*
X111000000Y-84460000D03*
X111000000Y-87000000D03*
X111000000Y-89540000D03*
X111000000Y-92080000D03*
%TO.C,J1*%
X117725000Y-114000000D03*
X120265000Y-114000000D03*
%TO.C,RV1*%
X126460000Y-97325000D03*
X129000000Y-97325000D03*
X131540000Y-97325000D03*
D12*
%TO.C,M1*%
X78840000Y-112000000D03*
X81380000Y-112000000D03*
X83920000Y-112000000D03*
X86460000Y-112000000D03*
X89000000Y-112000000D03*
X91540000Y-112000000D03*
X94080000Y-112000000D03*
X96620000Y-112000000D03*
X99160000Y-112000000D03*
%TO.C,M2*%
X104880000Y-110350000D03*
X107420000Y-97650000D03*
X107420000Y-110350000D03*
X109960000Y-97650000D03*
X109960000Y-110350000D03*
X112500000Y-97650000D03*
X112500000Y-110350000D03*
X115040000Y-97650000D03*
X115040000Y-110350000D03*
%TO.C,A1*%
X115260000Y-79150000D03*
X115260000Y-81690000D03*
X115260000Y-84230000D03*
X115260000Y-86770000D03*
X115260000Y-89310000D03*
X115260000Y-91850000D03*
%TO.C,M2*%
X117580000Y-97650000D03*
X117580000Y-110350000D03*
%TO.C,A1*%
X117800000Y-77880000D03*
X117800000Y-93120000D03*
%TO.C,M2*%
X120120000Y-97650000D03*
X120120000Y-110350000D03*
%TO.C,A1*%
X120340000Y-77880000D03*
X120340000Y-93120000D03*
X122880000Y-77880000D03*
X122880000Y-93120000D03*
X125420000Y-77880000D03*
X125420000Y-93120000D03*
X126570600Y-90194100D03*
X127960000Y-77880000D03*
X127960000Y-93120000D03*
X129110600Y-90194100D03*
X130500000Y-77880000D03*
X130500000Y-93120000D03*
X133040000Y-77880000D03*
X133040000Y-93120000D03*
X135580000Y-77880000D03*
X135580000Y-93120000D03*
X136984000Y-90194100D03*
X138120000Y-77880000D03*
X138120000Y-93120000D03*
X139524600Y-90194100D03*
X140660000Y-77880000D03*
X140660000Y-93120000D03*
X143200000Y-77880000D03*
X143200000Y-93120000D03*
X145740000Y-77880000D03*
X145740000Y-93120000D03*
D13*
%TO.C,DS1*%
X82500000Y-69642500D03*
X85040000Y-69642500D03*
X87580000Y-69642500D03*
X90120000Y-69642500D03*
X92660000Y-69642500D03*
X95200000Y-69642500D03*
X97740000Y-69642500D03*
X100280000Y-69642500D03*
X102820000Y-69642500D03*
X105360000Y-69642500D03*
X107900000Y-69642500D03*
X110440000Y-69642500D03*
X112980000Y-69642500D03*
X115520000Y-69642500D03*
X118060000Y-69642500D03*
X120600000Y-69642500D03*
D14*
X77000900Y-69642500D03*
X77000900Y-100643200D03*
X151999480Y-100643200D03*
X152000000Y-69642500D03*
M02*
